<svg xmlns="http://www.w3.org/2000/svg" xmlns:xlink="http://www.w3.org/1999/xlink" width="180" height="180" viewBox="0 0 90 90"><defs><path id="kauea" d="M680 715c0-22.091 17.909-40 40-40s40 17.909 40 40-17.909 40-40 40-40-17.909-40-40z"/><path id="kauec" d="M736.496 716.188l-10.56 10.32a1.748 1.748 0 0 1-2.432 0 1.654 1.654 0 0 1 0-2.377l9.344-9.131-9.344-9.13a1.654 1.654 0 0 1 0-2.378 1.748 1.748 0 0 1 2.432 0l10.56 10.32a1.656 1.656 0 0 1 0 2.376z"/><path id="kaued" d="M726.496 716.188l-10.56 10.32a1.748 1.748 0 0 1-2.432 0 1.654 1.654 0 0 1 0-2.377l9.344-9.131-9.344-9.13a1.654 1.654 0 0 1 0-2.378 1.748 1.748 0 0 1 2.432 0l10.56 10.32a1.656 1.656 0 0 1 0 2.376z"/><path id="kauee" d="M716.496 716.188l-10.56 10.32a1.748 1.748 0 0 1-2.432 0 1.654 1.654 0 0 1 0-2.377l9.344-9.131-9.344-9.13a1.654 1.654 0 0 1 0-2.378 1.748 1.748 0 0 1 2.432 0l10.56 10.32a1.656 1.656 0 0 1 0 2.376z"/><linearGradient id="kaueb" x1="689.79" x2="760" y1="743.44" y2="675" gradientUnits="userSpaceOnUse"><stop offset="0" stop-color="#2273ba"/><stop offset="1" stop-color="#62b3fa"/></linearGradient></defs><g><g transform="translate(-675 -670)"><g><use fill="url(#kaueb)" xlink:href="#kauea"/><use fill="#fff" fill-opacity="0" stroke="#fff" stroke-miterlimit="50" stroke-width="10" xlink:href="#kauea"/></g><g opacity=".75"><use fill="#fff" xlink:href="#kauec"/></g><g opacity=".5"><use fill="#fff" xlink:href="#kaued"/></g><g opacity=".25"><use fill="#fff" xlink:href="#kauee"/></g></g></g></svg>