<svg xmlns="http://www.w3.org/2000/svg" xmlns:xlink="http://www.w3.org/1999/xlink" width="772" height="582" viewBox="0 0 386 291"><defs><path id="2skga" d="M0 98.5a.5.5 0 1 1 1 0 .5.5 0 0 1-1 0z"/><path id="2skgb" d="M11 98.5a.5.5 0 1 1 1 0 .5.5 0 0 1-1 0z"/><path id="2skgc" d="M22 98.5a.5.5 0 1 1 1 0 .5.5 0 0 1-1 0z"/><path id="2skgd" d="M33 98.5a.5.5 0 1 1 1 0 .5.5 0 0 1-1 0z"/><path id="2skge" d="M0 109.5a.5.5 0 1 1 1 0 .5.5 0 0 1-1 0z"/><path id="2skgf" d="M11 109.5a.5.5 0 1 1 1 0 .5.5 0 0 1-1 0z"/><path id="2skgg" d="M22 109.5a.5.5 0 1 1 1 0 .5.5 0 0 1-1 0z"/><path id="2skgh" d="M33 109.5a.5.5 0 1 1 1 0 .5.5 0 0 1-1 0z"/><path id="2skgi" d="M0 120.5a.5.5 0 1 1 1 0 .5.5 0 0 1-1 0z"/><path id="2skgj" d="M11 120.5a.5.5 0 1 1 1 0 .5.5 0 0 1-1 0z"/><path id="2skgk" d="M22 120.5a.5.5 0 1 1 1 0 .5.5 0 0 1-1 0z"/><path id="2skgl" d="M33 120.5a.5.5 0 1 1 1 0 .5.5 0 0 1-1 0z"/><path id="2skgm" d="M44 98.5a.5.5 0 1 1 1 0 .5.5 0 0 1-1 0z"/><path id="2skgn" d="M55 98.5a.5.5 0 1 1 1 0 .5.5 0 0 1-1 0z"/><path id="2skgo" d="M66 98.5a.5.5 0 1 1 1 0 .5.5 0 0 1-1 0z"/><path id="2skgp" d="M77 98.5a.5.5 0 1 1 1 0 .5.5 0 0 1-1 0z"/><path id="2skgq" d="M88 98.5a.5.5 0 1 1 1 0 .5.5 0 0 1-1 0z"/><path id="2skgr" d="M88 109.5a.5.5 0 1 1 1 0 .5.5 0 0 1-1 0z"/><path id="2skgs" d="M88 120.5a.5.5 0 1 1 1 0 .5.5 0 0 1-1 0z"/><path id="2skgt" d="M88 131.5a.5.5 0 1 1 1 0 .5.5 0 0 1-1 0z"/><path id="2skgu" d="M44 109.5a.5.5 0 1 1 1 0 .5.5 0 0 1-1 0z"/><path id="2skgv" d="M55 109.5a.5.5 0 1 1 1 0 .5.5 0 0 1-1 0z"/><path id="2skgw" d="M66 109.5a.5.5 0 1 1 1 0 .5.5 0 0 1-1 0z"/><path id="2skgx" d="M77 109.5a.5.5 0 1 1 1 0 .5.5 0 0 1-1 0z"/><path id="2skgy" d="M44 120.5a.5.5 0 1 1 1 0 .5.5 0 0 1-1 0z"/><path id="2skgz" d="M55 120.5a.5.5 0 1 1 1 0 .5.5 0 0 1-1 0z"/><path id="2skgA" d="M66 120.5a.5.5 0 1 1 1 0 .5.5 0 0 1-1 0z"/><path id="2skgB" d="M77 120.5a.5.5 0 1 1 1 0 .5.5 0 0 1-1 0z"/><path id="2skgC" d="M0 131.5a.5.5 0 1 1 1 0 .5.5 0 0 1-1 0z"/><path id="2skgD" d="M11 131.5a.5.5 0 1 1 1 0 .5.5 0 0 1-1 0z"/><path id="2skgE" d="M22 131.5a.5.5 0 1 1 1 0 .5.5 0 0 1-1 0z"/><path id="2skgF" d="M33 131.5a.5.5 0 1 1 1 0 .5.5 0 0 1-1 0z"/><path id="2skgG" d="M0 142.5a.5.5 0 1 1 1 0 .5.5 0 0 1-1 0z"/><path id="2skgH" d="M11 142.5a.5.5 0 1 1 1 0 .5.5 0 0 1-1 0z"/><path id="2skgI" d="M22 142.5a.5.5 0 1 1 1 0 .5.5 0 0 1-1 0z"/><path id="2skgJ" d="M33 142.5a.5.5 0 1 1 1 0 .5.5 0 0 1-1 0z"/><path id="2skgK" d="M0 153.5a.5.5 0 1 1 1 0 .5.5 0 0 1-1 0z"/><path id="2skgL" d="M0 164.5a.5.5 0 1 1 1 0 .5.5 0 0 1-1 0z"/><path id="2skgM" d="M11 164.5a.5.5 0 1 1 1 0 .5.5 0 0 1-1 0z"/><path id="2skgN" d="M22 164.5a.5.5 0 1 1 1 0 .5.5 0 0 1-1 0z"/><path id="2skgO" d="M33 164.5a.5.5 0 1 1 1 0 .5.5 0 0 1-1 0z"/><path id="2skgP" d="M44 164.5a.5.5 0 1 1 1 0 .5.5 0 0 1-1 0z"/><path id="2skgQ" d="M55 164.5a.5.5 0 1 1 1 0 .5.5 0 0 1-1 0z"/><path id="2skgR" d="M11 153.5a.5.5 0 1 1 1 0 .5.5 0 0 1-1 0z"/><path id="2skgS" d="M22 153.5a.5.5 0 1 1 1 0 .5.5 0 0 1-1 0z"/><path id="2skgT" d="M33 153.5a.5.5 0 1 1 1 0 .5.5 0 0 1-1 0z"/><path id="2skgU" d="M44 131.5a.5.5 0 1 1 1 0 .5.5 0 0 1-1 0z"/><path id="2skgV" d="M55 131.5a.5.5 0 1 1 1 0 .5.5 0 0 1-1 0z"/><path id="2skgW" d="M66 131.5a.5.5 0 1 1 1 0 .5.5 0 0 1-1 0z"/><path id="2skgX" d="M77 131.5a.5.5 0 1 1 1 0 .5.5 0 0 1-1 0z"/><path id="2skgY" d="M44 142.5a.5.5 0 1 1 1 0 .5.5 0 0 1-1 0z"/><path id="2skgZ" d="M55 142.5a.5.5 0 1 1 1 0 .5.5 0 0 1-1 0z"/><path id="2skgaa" d="M44 153.5a.5.5 0 1 1 1 0 .5.5 0 0 1-1 0z"/><path id="2skgab" d="M55 153.5a.5.5 0 1 1 1 0 .5.5 0 0 1-1 0z"/><path id="2skgac" d="M99 142.5a.5.5 0 1 1 1 0 .5.5 0 0 1-1 0z"/><path id="2skgad" d="M99 153.5a.5.5 0 1 1 1 0 .5.5 0 0 1-1 0z"/><path id="2skgae" d="M99 164.5a.5.5 0 1 1 1 0 .5.5 0 0 1-1 0z"/><path id="2skgaf" d="M110 142.5a.5.5 0 1 1 1 0 .5.5 0 0 1-1 0z"/><path id="2skgag" d="M121 142.5a.5.5 0 1 1 1 0 .5.5 0 0 1-1 0z"/><path id="2skgah" d="M132 142.5a.5.5 0 1 1 1 0 .5.5 0 0 1-1 0z"/><path id="2skgai" d="M143 142.5a.5.5 0 1 1 1 0 .5.5 0 0 1-1 0z"/><path id="2skgaj" d="M154 142.5a.5.5 0 1 1 1 0 .5.5 0 0 1-1 0z"/><path id="2skgak" d="M154 153.5a.5.5 0 1 1 1 0 .5.5 0 0 1-1 0z"/><path id="2skgal" d="M154 164.5a.5.5 0 1 1 1 0 .5.5 0 0 1-1 0z"/><path id="2skgam" d="M154 175.5a.5.5 0 1 1 1 0 .5.5 0 0 1-1 0z"/><path id="2skgan" d="M154 186.5a.5.5 0 1 1 1 0 .5.5 0 0 1-1 0z"/><path id="2skgao" d="M110 153.5a.5.5 0 1 1 1 0 .5.5 0 0 1-1 0z"/><path id="2skgap" d="M121 153.5a.5.5 0 1 1 1 0 .5.5 0 0 1-1 0z"/><path id="2skgaq" d="M132 153.5a.5.5 0 1 1 1 0 .5.5 0 0 1-1 0z"/><path id="2skgar" d="M143 153.5a.5.5 0 1 1 1 0 .5.5 0 0 1-1 0z"/><path id="2skgas" d="M110 164.5a.5.5 0 1 1 1 0 .5.5 0 0 1-1 0z"/><path id="2skgat" d="M121 164.5a.5.5 0 1 1 1 0 .5.5 0 0 1-1 0z"/><path id="2skgau" d="M132 164.5a.5.5 0 1 1 1 0 .5.5 0 0 1-1 0z"/><path id="2skgav" d="M143 164.5a.5.5 0 1 1 1 0 .5.5 0 0 1-1 0z"/><path id="2skgaw" d="M66 175.5a.5.5 0 1 1 1 0 .5.5 0 0 1-1 0z"/><path id="2skgax" d="M77 175.5a.5.5 0 1 1 1 0 .5.5 0 0 1-1 0z"/><path id="2skgay" d="M88 175.5a.5.5 0 1 1 1 0 .5.5 0 0 1-1 0z"/><path id="2skgaz" d="M99 175.5a.5.5 0 1 1 1 0 .5.5 0 0 1-1 0z"/><path id="2skgaA" d="M66 186.5a.5.5 0 1 1 1 0 .5.5 0 0 1-1 0z"/><path id="2skgaB" d="M77 186.5a.5.5 0 1 1 1 0 .5.5 0 0 1-1 0z"/><path id="2skgaC" d="M88 186.5a.5.5 0 1 1 1 0 .5.5 0 0 1-1 0z"/><path id="2skgaD" d="M99 186.5a.5.5 0 1 1 1 0 .5.5 0 0 1-1 0z"/><path id="2skgaE" d="M66 197.5a.5.5 0 1 1 1 0 .5.5 0 0 1-1 0z"/><path id="2skgaF" d="M66 208.5a.5.5 0 1 1 1 0 .5.5 0 0 1-1 0z"/><path id="2skgaG" d="M77 208.5a.5.5 0 1 1 1 0 .5.5 0 0 1-1 0z"/><path id="2skgaH" d="M88 208.5a.5.5 0 1 1 1 0 .5.5 0 0 1-1 0z"/><path id="2skgaI" d="M99 208.5a.5.5 0 1 1 1 0 .5.5 0 0 1-1 0z"/><path id="2skgaJ" d="M110 208.5a.5.5 0 1 1 1 0 .5.5 0 0 1-1 0z"/><path id="2skgaK" d="M77 197.5a.5.5 0 1 1 1 0 .5.5 0 0 1-1 0z"/><path id="2skgaL" d="M88 197.5a.5.5 0 1 1 1 0 .5.5 0 0 1-1 0z"/><path id="2skgaM" d="M99 197.5a.5.5 0 1 1 1 0 .5.5 0 0 1-1 0z"/><path id="2skgaN" d="M110 175.5a.5.5 0 1 1 1 0 .5.5 0 0 1-1 0z"/><path id="2skgaO" d="M121 175.5a.5.5 0 1 1 1 0 .5.5 0 0 1-1 0z"/><path id="2skgaP" d="M132 175.5a.5.5 0 1 1 1 0 .5.5 0 0 1-1 0z"/><path id="2skgaQ" d="M143 175.5a.5.5 0 1 1 1 0 .5.5 0 0 1-1 0z"/><path id="2skgaR" d="M110 186.5a.5.5 0 1 1 1 0 .5.5 0 0 1-1 0z"/><path id="2skgaS" d="M121 186.5a.5.5 0 1 1 1 0 .5.5 0 0 1-1 0z"/><path id="2skgaT" d="M132 186.5a.5.5 0 1 1 1 0 .5.5 0 0 1-1 0z"/><path id="2skgaU" d="M143 186.5a.5.5 0 1 1 1 0 .5.5 0 0 1-1 0z"/><path id="2skgaV" d="M110 197.5a.5.5 0 1 1 1 0 .5.5 0 0 1-1 0z"/><path id="2skgaW" d="M121 197.5a.5.5 0 1 1 1 0 .5.5 0 0 1-1 0z"/><path id="2skgaX" d="M187 87.5a.5.5 0 1 1 1 0 .5.5 0 0 1-1 0z"/><path id="2skgaY" d="M176 87.5a.5.5 0 1 1 1 0 .5.5 0 0 1-1 0z"/><path id="2skgaZ" d="M165 87.5a.5.5 0 1 1 1 0 .5.5 0 0 1-1 0z"/><path id="2skgba" d="M154 87.5a.5.5 0 1 1 1 0 .5.5 0 0 1-1 0z"/><path id="2skgbb" d="M187 98.5a.5.5 0 1 1 1 0 .5.5 0 0 1-1 0z"/><path id="2skgbc" d="M176 98.5a.5.5 0 1 1 1 0 .5.5 0 0 1-1 0z"/><path id="2skgbd" d="M165 98.5a.5.5 0 1 1 1 0 .5.5 0 0 1-1 0z"/><path id="2skgbe" d="M154 98.5a.5.5 0 1 1 1 0 .5.5 0 0 1-1 0z"/><path id="2skgbf" d="M187 109.5a.5.5 0 1 1 1 0 .5.5 0 0 1-1 0z"/><path id="2skgbg" d="M176 109.5a.5.5 0 1 1 1 0 .5.5 0 0 1-1 0z"/><path id="2skgbh" d="M165 109.5a.5.5 0 1 1 1 0 .5.5 0 0 1-1 0z"/><path id="2skgbi" d="M154 109.5a.5.5 0 1 1 1 0 .5.5 0 0 1-1 0z"/><path id="2skgbj" d="M198 87.5a.5.5 0 1 1 1 0 .5.5 0 0 1-1 0z"/><path id="2skgbk" d="M209 87.5a.5.5 0 1 1 1 0 .5.5 0 0 1-1 0z"/><path id="2skgbl" d="M220 87.5a.5.5 0 1 1 1 0 .5.5 0 0 1-1 0z"/><path id="2skgbm" d="M231 87.5a.5.5 0 1 1 1 0 .5.5 0 0 1-1 0z"/><path id="2skgbn" d="M242 87.5a.5.5 0 1 1 1 0 .5.5 0 0 1-1 0z"/><path id="2skgbo" d="M253 87.5a.5.5 0 1 1 1 0 .5.5 0 0 1-1 0z"/><path id="2skgbp" d="M242 98.5a.5.5 0 1 1 1 0 .5.5 0 0 1-1 0z"/><path id="2skgbq" d="M253 98.5a.5.5 0 1 1 1 0 .5.5 0 0 1-1 0z"/><path id="2skgbr" d="M242 109.5a.5.5 0 1 1 1 0 .5.5 0 0 1-1 0z"/><path id="2skgbs" d="M253 109.5a.5.5 0 1 1 1 0 .5.5 0 0 1-1 0z"/><path id="2skgbt" d="M242 120.5a.5.5 0 1 1 1 0 .5.5 0 0 1-1 0z"/><path id="2skgbu" d="M253 120.5a.5.5 0 1 1 1 0 .5.5 0 0 1-1 0z"/><path id="2skgbv" d="M242 131.5a.5.5 0 1 1 1 0 .5.5 0 0 1-1 0z"/><path id="2skgbw" d="M253 131.5a.5.5 0 1 1 1 0 .5.5 0 0 1-1 0z"/><path id="2skgbx" d="M242 142.5a.5.5 0 1 1 1 0 .5.5 0 0 1-1 0z"/><path id="2skgby" d="M253 142.5a.5.5 0 1 1 1 0 .5.5 0 0 1-1 0z"/><path id="2skgbz" d="M198 98.5a.5.5 0 1 1 1 0 .5.5 0 0 1-1 0z"/><path id="2skgbA" d="M209 98.5a.5.5 0 1 1 1 0 .5.5 0 0 1-1 0z"/><path id="2skgbB" d="M220 98.5a.5.5 0 1 1 1 0 .5.5 0 0 1-1 0z"/><path id="2skgbC" d="M231 98.5a.5.5 0 1 1 1 0 .5.5 0 0 1-1 0z"/><path id="2skgbD" d="M198 109.5a.5.5 0 1 1 1 0 .5.5 0 0 1-1 0z"/><path id="2skgbE" d="M209 109.5a.5.5 0 1 1 1 0 .5.5 0 0 1-1 0z"/><path id="2skgbF" d="M220 109.5a.5.5 0 1 1 1 0 .5.5 0 0 1-1 0z"/><path id="2skgbG" d="M231 109.5a.5.5 0 1 1 1 0 .5.5 0 0 1-1 0z"/><path id="2skgbH" d="M154 120.5a.5.5 0 1 1 1 0 .5.5 0 0 1-1 0z"/><path id="2skgbI" d="M165 120.5a.5.5 0 1 1 1 0 .5.5 0 0 1-1 0z"/><path id="2skgbJ" d="M176 120.5a.5.5 0 1 1 1 0 .5.5 0 0 1-1 0z"/><path id="2skgbK" d="M187 120.5a.5.5 0 1 1 1 0 .5.5 0 0 1-1 0z"/><path id="2skgbL" d="M154 131.5a.5.5 0 1 1 1 0 .5.5 0 0 1-1 0z"/><path id="2skgbM" d="M165 131.5a.5.5 0 1 1 1 0 .5.5 0 0 1-1 0z"/><path id="2skgbN" d="M176 131.5a.5.5 0 1 1 1 0 .5.5 0 0 1-1 0z"/><path id="2skgbO" d="M187 131.5a.5.5 0 1 1 1 0 .5.5 0 0 1-1 0z"/><path id="2skgbP" d="M165 153.5a.5.5 0 1 1 1 0 .5.5 0 0 1-1 0z"/><path id="2skgbQ" d="M165 164.5a.5.5 0 1 1 1 0 .5.5 0 0 1-1 0z"/><path id="2skgbR" d="M176 153.5a.5.5 0 1 1 1 0 .5.5 0 0 1-1 0z"/><path id="2skgbS" d="M176 164.5a.5.5 0 1 1 1 0 .5.5 0 0 1-1 0z"/><path id="2skgbT" d="M187 153.5a.5.5 0 1 1 1 0 .5.5 0 0 1-1 0z"/><path id="2skgbU" d="M187 164.5a.5.5 0 1 1 1 0 .5.5 0 0 1-1 0z"/><path id="2skgbV" d="M198 153.5a.5.5 0 1 1 1 0 .5.5 0 0 1-1 0z"/><path id="2skgbW" d="M198 164.5a.5.5 0 1 1 1 0 .5.5 0 0 1-1 0z"/><path id="2skgbX" d="M209 153.5a.5.5 0 1 1 1 0 .5.5 0 0 1-1 0z"/><path id="2skgbY" d="M209 164.5a.5.5 0 1 1 1 0 .5.5 0 0 1-1 0z"/><path id="2skgbZ" d="M220 153.5a.5.5 0 1 1 1 0 .5.5 0 0 1-1 0z"/><path id="2skgca" d="M220 164.5a.5.5 0 1 1 1 0 .5.5 0 0 1-1 0z"/><path id="2skgcb" d="M231 153.5a.5.5 0 1 1 1 0 .5.5 0 0 1-1 0z"/><path id="2skgcc" d="M231 164.5a.5.5 0 1 1 1 0 .5.5 0 0 1-1 0z"/><path id="2skgcd" d="M242 153.5a.5.5 0 1 1 1 0 .5.5 0 0 1-1 0z"/><path id="2skgce" d="M242 164.5a.5.5 0 1 1 1 0 .5.5 0 0 1-1 0z"/><path id="2skgcf" d="M253 153.5a.5.5 0 1 1 1 0 .5.5 0 0 1-1 0z"/><path id="2skgcg" d="M253 164.5a.5.5 0 1 1 1 0 .5.5 0 0 1-1 0z"/><path id="2skgch" d="M264 87.5a.5.5 0 1 1 1 0 .5.5 0 0 1-1 0z"/><path id="2skgci" d="M264 98.5a.5.5 0 1 1 1 0 .5.5 0 0 1-1 0z"/><path id="2skgcj" d="M264 109.5a.5.5 0 1 1 1 0 .5.5 0 0 1-1 0z"/><path id="2skgck" d="M264 120.5a.5.5 0 1 1 1 0 .5.5 0 0 1-1 0z"/><path id="2skgcl" d="M264 131.5a.5.5 0 1 1 1 0 .5.5 0 0 1-1 0z"/><path id="2skgcm" d="M264 142.5a.5.5 0 1 1 1 0 .5.5 0 0 1-1 0z"/><path id="2skgcn" d="M264 153.5a.5.5 0 1 1 1 0 .5.5 0 0 1-1 0z"/><path id="2skgco" d="M264 164.5a.5.5 0 1 1 1 0 .5.5 0 0 1-1 0z"/><path id="2skgcp" d="M275 87.5a.5.5 0 1 1 1 0 .5.5 0 0 1-1 0z"/><path id="2skgcq" d="M286 87.5a.5.5 0 1 1 1 0 .5.5 0 0 1-1 0z"/><path id="2skgcr" d="M297 87.5a.5.5 0 1 1 1 0 .5.5 0 0 1-1 0z"/><path id="2skgcs" d="M275 98.5a.5.5 0 1 1 1 0 .5.5 0 0 1-1 0z"/><path id="2skgct" d="M286 98.5a.5.5 0 1 1 1 0 .5.5 0 0 1-1 0z"/><path id="2skgcu" d="M297 98.5a.5.5 0 1 1 1 0 .5.5 0 0 1-1 0z"/><path id="2skgcv" d="M275 109.5a.5.5 0 1 1 1 0 .5.5 0 0 1-1 0z"/><path id="2skgcw" d="M286 109.5a.5.5 0 1 1 1 0 .5.5 0 0 1-1 0z"/><path id="2skgcx" d="M297 109.5a.5.5 0 1 1 1 0 .5.5 0 0 1-1 0z"/><path id="2skgcy" d="M308 87.5a.5.5 0 1 1 1 0 .5.5 0 0 1-1 0z"/><path id="2skgcz" d="M319 87.5a.5.5 0 1 1 1 0 .5.5 0 0 1-1 0z"/><path id="2skgcA" d="M308 98.5a.5.5 0 1 1 1 0 .5.5 0 0 1-1 0z"/><path id="2skgcB" d="M319 98.5a.5.5 0 1 1 1 0 .5.5 0 0 1-1 0z"/><path id="2skgcC" d="M330 87.5a.5.5 0 1 1 1 0 .5.5 0 0 1-1 0z"/><path id="2skgcD" d="M341 87.5a.5.5 0 1 1 1 0 .5.5 0 0 1-1 0z"/><path id="2skgcE" d="M352 87.5a.5.5 0 1 1 1 0 .5.5 0 0 1-1 0z"/><path id="2skgcF" d="M363 87.5a.5.5 0 1 1 1 0 .5.5 0 0 1-1 0z"/><path id="2skgcG" d="M330 98.5a.5.5 0 1 1 1 0 .5.5 0 0 1-1 0z"/><path id="2skgcH" d="M308 109.5a.5.5 0 1 1 1 0 .5.5 0 0 1-1 0z"/><path id="2skgcI" d="M275 120.5a.5.5 0 1 1 1 0 .5.5 0 0 1-1 0z"/><path id="2skgcJ" d="M275 131.5a.5.5 0 1 1 1 0 .5.5 0 0 1-1 0z"/><path id="2skgcK" d="M275 142.5a.5.5 0 1 1 1 0 .5.5 0 0 1-1 0z"/><path id="2skgcL" d="M275 153.5a.5.5 0 1 1 1 0 .5.5 0 0 1-1 0z"/><path id="2skgcM" d="M275 164.5a.5.5 0 1 1 1 0 .5.5 0 0 1-1 0z"/><path id="2skgcN" d="M165 142.5a.5.5 0 1 1 1 0 .5.5 0 0 1-1 0z"/><path id="2skgcO" d="M176 142.5a.5.5 0 1 1 1 0 .5.5 0 0 1-1 0z"/><path id="2skgcP" d="M187 142.5a.5.5 0 1 1 1 0 .5.5 0 0 1-1 0z"/><path id="2skgcQ" d="M198 120.5a.5.5 0 1 1 1 0 .5.5 0 0 1-1 0z"/><path id="2skgcR" d="M209 120.5a.5.5 0 1 1 1 0 .5.5 0 0 1-1 0z"/><path id="2skgcS" d="M220 120.5a.5.5 0 1 1 1 0 .5.5 0 0 1-1 0z"/><path id="2skgcT" d="M231 120.5a.5.5 0 1 1 1 0 .5.5 0 0 1-1 0z"/><path id="2skgcU" d="M198 131.5a.5.5 0 1 1 1 0 .5.5 0 0 1-1 0z"/><path id="2skgcV" d="M209 131.5a.5.5 0 1 1 1 0 .5.5 0 0 1-1 0z"/><path id="2skgcW" d="M220 131.5a.5.5 0 1 1 1 0 .5.5 0 0 1-1 0z"/><path id="2skgcX" d="M231 131.5a.5.5 0 1 1 1 0 .5.5 0 0 1-1 0z"/><path id="2skgcY" d="M198 142.5a.5.5 0 1 1 1 0 .5.5 0 0 1-1 0z"/><path id="2skgcZ" d="M209 142.5a.5.5 0 1 1 1 0 .5.5 0 0 1-1 0z"/><path id="2skgda" d="M220 142.5a.5.5 0 1 1 1 0 .5.5 0 0 1-1 0z"/><path id="2skgdb" d="M231 142.5a.5.5 0 1 1 1 0 .5.5 0 0 1-1 0z"/><path id="2skgdc" d="M11 223.5a.5.5 0 1 1 1 0 .5.5 0 0 1-1 0z"/><path id="2skgdd" d="M11 234.5a.5.5 0 1 1 1 0 .5.5 0 0 1-1 0z"/><path id="2skgde" d="M11 245.5a.5.5 0 1 1 1 0 .5.5 0 0 1-1 0z"/><path id="2skgdf" d="M22 223.5a.5.5 0 1 1 1 0 .5.5 0 0 1-1 0z"/><path id="2skgdg" d="M33 223.5a.5.5 0 1 1 1 0 .5.5 0 0 1-1 0z"/><path id="2skgdh" d="M44 223.5a.5.5 0 1 1 1 0 .5.5 0 0 1-1 0z"/><path id="2skgdi" d="M55 223.5a.5.5 0 1 1 1 0 .5.5 0 0 1-1 0z"/><path id="2skgdj" d="M66 223.5a.5.5 0 1 1 1 0 .5.5 0 0 1-1 0z"/><path id="2skgdk" d="M66 234.5a.5.5 0 1 1 1 0 .5.5 0 0 1-1 0z"/><path id="2skgdl" d="M66 245.5a.5.5 0 1 1 1 0 .5.5 0 0 1-1 0z"/><path id="2skgdm" d="M66 256.5a.5.5 0 1 1 1 0 .5.5 0 0 1-1 0z"/><path id="2skgdn" d="M66 267.5a.5.5 0 1 1 1 0 .5.5 0 0 1-1 0z"/><path id="2skgdo" d="M66 278.5a.5.5 0 1 1 1 0 .5.5 0 0 1-1 0z"/><path id="2skgdp" d="M22 234.5a.5.5 0 1 1 1 0 .5.5 0 0 1-1 0z"/><path id="2skgdq" d="M33 234.5a.5.5 0 1 1 1 0 .5.5 0 0 1-1 0z"/><path id="2skgdr" d="M44 234.5a.5.5 0 1 1 1 0 .5.5 0 0 1-1 0z"/><path id="2skgds" d="M55 234.5a.5.5 0 1 1 1 0 .5.5 0 0 1-1 0z"/><path id="2skgdt" d="M22 245.5a.5.5 0 1 1 1 0 .5.5 0 0 1-1 0z"/><path id="2skgdu" d="M33 245.5a.5.5 0 1 1 1 0 .5.5 0 0 1-1 0z"/><path id="2skgdv" d="M44 245.5a.5.5 0 1 1 1 0 .5.5 0 0 1-1 0z"/><path id="2skgdw" d="M55 245.5a.5.5 0 1 1 1 0 .5.5 0 0 1-1 0z"/><path id="2skgdx" d="M-22 256.5a.5.5 0 1 1 1 0 .5.5 0 0 1-1 0z"/><path id="2skgdy" d="M-11 256.5a.5.5 0 1 1 1 0 .5.5 0 0 1-1 0z"/><path id="2skgdz" d="M0 256.5a.5.5 0 1 1 1 0 .5.5 0 0 1-1 0z"/><path id="2skgdA" d="M11 256.5a.5.5 0 1 1 1 0 .5.5 0 0 1-1 0z"/><path id="2skgdB" d="M-22 267.5a.5.5 0 1 1 1 0 .5.5 0 0 1-1 0z"/><path id="2skgdC" d="M-11 267.5a.5.5 0 1 1 1 0 .5.5 0 0 1-1 0z"/><path id="2skgdD" d="M0 267.5a.5.5 0 1 1 1 0 .5.5 0 0 1-1 0z"/><path id="2skgdE" d="M11 267.5a.5.5 0 1 1 1 0 .5.5 0 0 1-1 0z"/><path id="2skgdF" d="M-22 278.5a.5.5 0 1 1 1 0 .5.5 0 0 1-1 0z"/><path id="2skgdG" d="M-22 289.5a.5.5 0 1 1 1 0 .5.5 0 0 1-1 0z"/><path id="2skgdH" d="M-11 289.5a.5.5 0 1 1 1 0 .5.5 0 0 1-1 0z"/><path id="2skgdI" d="M0 289.5a.5.5 0 1 1 1 0 .5.5 0 0 1-1 0z"/><path id="2skgdJ" d="M0 300.5a.5.5 0 1 1 1 0 .5.5 0 0 1-1 0z"/><path id="2skgdK" d="M11 289.5a.5.5 0 1 1 1 0 .5.5 0 0 1-1 0z"/><path id="2skgdL" d="M11 300.5a.5.5 0 1 1 1 0 .5.5 0 0 1-1 0z"/><path id="2skgdM" d="M22 289.5a.5.5 0 1 1 1 0 .5.5 0 0 1-1 0z"/><path id="2skgdN" d="M22 300.5a.5.5 0 1 1 1 0 .5.5 0 0 1-1 0z"/><path id="2skgdO" d="M0 311.5a.5.5 0 1 1 1 0 .5.5 0 0 1-1 0z"/><path id="2skgdP" d="M11 311.5a.5.5 0 1 1 1 0 .5.5 0 0 1-1 0z"/><path id="2skgdQ" d="M22 311.5a.5.5 0 1 1 1 0 .5.5 0 0 1-1 0z"/><path id="2skgdR" d="M0 322.5a.5.5 0 1 1 1 0 .5.5 0 0 1-1 0z"/><path id="2skgdS" d="M11 322.5a.5.5 0 1 1 1 0 .5.5 0 0 1-1 0z"/><path id="2skgdT" d="M22 322.5a.5.5 0 1 1 1 0 .5.5 0 0 1-1 0z"/><path id="2skgdU" d="M0 333.5a.5.5 0 1 1 1 0 .5.5 0 0 1-1 0z"/><path id="2skgdV" d="M11 333.5a.5.5 0 1 1 1 0 .5.5 0 0 1-1 0z"/><path id="2skgdW" d="M0 344.5a.5.5 0 1 1 1 0 .5.5 0 0 1-1 0z"/><path id="2skgdX" d="M0 355.5a.5.5 0 1 1 1 0 .5.5 0 0 1-1 0z"/><path id="2skgdY" d="M11 344.5a.5.5 0 1 1 1 0 .5.5 0 0 1-1 0z"/><path id="2skgdZ" d="M0 366.5a.5.5 0 1 1 1 0 .5.5 0 0 1-1 0z"/><path id="2skgea" d="M0 377.5a.5.5 0 1 1 1 0 .5.5 0 0 1-1 0z"/><path id="2skgeb" d="M33 289.5a.5.5 0 1 1 1 0 .5.5 0 0 1-1 0z"/><path id="2skgec" d="M44 289.5a.5.5 0 1 1 1 0 .5.5 0 0 1-1 0z"/><path id="2skged" d="M55 289.5a.5.5 0 1 1 1 0 .5.5 0 0 1-1 0z"/><path id="2skgee" d="M66 289.5a.5.5 0 1 1 1 0 .5.5 0 0 1-1 0z"/><path id="2skgef" d="M-11 278.5a.5.5 0 1 1 1 0 .5.5 0 0 1-1 0z"/><path id="2skgeg" d="M0 278.5a.5.5 0 1 1 1 0 .5.5 0 0 1-1 0z"/><path id="2skgeh" d="M11 278.5a.5.5 0 1 1 1 0 .5.5 0 0 1-1 0z"/><path id="2skgei" d="M22 256.5a.5.5 0 1 1 1 0 .5.5 0 0 1-1 0z"/><path id="2skgej" d="M33 256.5a.5.5 0 1 1 1 0 .5.5 0 0 1-1 0z"/><path id="2skgek" d="M44 256.5a.5.5 0 1 1 1 0 .5.5 0 0 1-1 0z"/><path id="2skgel" d="M55 256.5a.5.5 0 1 1 1 0 .5.5 0 0 1-1 0z"/><path id="2skgem" d="M22 267.5a.5.5 0 1 1 1 0 .5.5 0 0 1-1 0z"/><path id="2skgen" d="M33 267.5a.5.5 0 1 1 1 0 .5.5 0 0 1-1 0z"/><path id="2skgeo" d="M44 267.5a.5.5 0 1 1 1 0 .5.5 0 0 1-1 0z"/><path id="2skgep" d="M55 267.5a.5.5 0 1 1 1 0 .5.5 0 0 1-1 0z"/><path id="2skgeq" d="M22 278.5a.5.5 0 1 1 1 0 .5.5 0 0 1-1 0z"/><path id="2skger" d="M33 278.5a.5.5 0 1 1 1 0 .5.5 0 0 1-1 0z"/><path id="2skges" d="M44 278.5a.5.5 0 1 1 1 0 .5.5 0 0 1-1 0z"/><path id="2skget" d="M55 278.5a.5.5 0 1 1 1 0 .5.5 0 0 1-1 0z"/></defs><g><g transform="translate(22 -87)"><g><use fill="#fff" xlink:href="#2skga"/></g><g><use fill="#fff" xlink:href="#2skgb"/></g><g><use fill="#fff" xlink:href="#2skgc"/></g><g><use fill="#fff" xlink:href="#2skgd"/></g><g><use fill="#fff" xlink:href="#2skge"/></g><g><use fill="#fff" xlink:href="#2skgf"/></g><g><use fill="#fff" xlink:href="#2skgg"/></g><g><use fill="#fff" xlink:href="#2skgh"/></g><g><use fill="#fff" xlink:href="#2skgi"/></g><g><use fill="#fff" xlink:href="#2skgj"/></g><g><use fill="#fff" xlink:href="#2skgk"/></g><g><use fill="#fff" xlink:href="#2skgl"/></g><g><use fill="#fff" xlink:href="#2skgm"/></g><g><use fill="#fff" xlink:href="#2skgn"/></g><g><use fill="#fff" xlink:href="#2skgo"/></g><g><use fill="#fff" xlink:href="#2skgp"/></g><g><use fill="#fff" xlink:href="#2skgq"/></g><g><use fill="#fff" xlink:href="#2skgr"/></g><g><use fill="#fff" xlink:href="#2skgs"/></g><g><use fill="#fff" xlink:href="#2skgt"/></g><g><use fill="#fff" xlink:href="#2skgu"/></g><g><use fill="#fff" xlink:href="#2skgv"/></g><g><use fill="#fff" xlink:href="#2skgw"/></g><g><use fill="#fff" xlink:href="#2skgx"/></g><g><use fill="#fff" xlink:href="#2skgy"/></g><g><use fill="#fff" xlink:href="#2skgz"/></g><g><use fill="#fff" xlink:href="#2skgA"/></g><g><use fill="#fff" xlink:href="#2skgB"/></g><g><use fill="#fff" xlink:href="#2skgC"/></g><g><use fill="#fff" xlink:href="#2skgD"/></g><g><use fill="#fff" xlink:href="#2skgE"/></g><g><use fill="#fff" xlink:href="#2skgF"/></g><g><use fill="#fff" xlink:href="#2skgG"/></g><g><use fill="#fff" xlink:href="#2skgH"/></g><g><use fill="#fff" xlink:href="#2skgI"/></g><g><use fill="#fff" xlink:href="#2skgJ"/></g><g><use fill="#fff" xlink:href="#2skgK"/></g><g><use fill="#fff" xlink:href="#2skgL"/></g><g><use fill="#fff" xlink:href="#2skgM"/></g><g><use fill="#fff" xlink:href="#2skgN"/></g><g><use fill="#fff" xlink:href="#2skgO"/></g><g><use fill="#fff" xlink:href="#2skgP"/></g><g><use fill="#fff" xlink:href="#2skgQ"/></g><g><use fill="#fff" xlink:href="#2skgR"/></g><g><use fill="#fff" xlink:href="#2skgS"/></g><g><use fill="#fff" xlink:href="#2skgT"/></g><g><use fill="#fff" xlink:href="#2skgU"/></g><g><use fill="#fff" xlink:href="#2skgV"/></g><g><use fill="#fff" xlink:href="#2skgW"/></g><g><use fill="#fff" xlink:href="#2skgX"/></g><g><use fill="#fff" xlink:href="#2skgY"/></g><g><use fill="#fff" xlink:href="#2skgZ"/></g><g><use fill="#fff" xlink:href="#2skgaa"/></g><g><use fill="#fff" xlink:href="#2skgab"/></g></g><g transform="translate(22 -87)"><g><use fill="#fff" xlink:href="#2skgac"/></g><g><use fill="#fff" xlink:href="#2skgad"/></g><g><use fill="#fff" xlink:href="#2skgae"/></g><g><use fill="#fff" xlink:href="#2skgaf"/></g><g><use fill="#fff" xlink:href="#2skgag"/></g><g><use fill="#fff" xlink:href="#2skgah"/></g><g><use fill="#fff" xlink:href="#2skgai"/></g><g><use fill="#fff" xlink:href="#2skgaj"/></g><g><use fill="#fff" xlink:href="#2skgak"/></g><g><use fill="#fff" xlink:href="#2skgal"/></g><g><use fill="#fff" xlink:href="#2skgam"/></g><g><use fill="#fff" xlink:href="#2skgan"/></g><g><use fill="#fff" xlink:href="#2skgao"/></g><g><use fill="#fff" xlink:href="#2skgap"/></g><g><use fill="#fff" xlink:href="#2skgaq"/></g><g><use fill="#fff" xlink:href="#2skgar"/></g><g><use fill="#fff" xlink:href="#2skgas"/></g><g><use fill="#fff" xlink:href="#2skgat"/></g><g><use fill="#fff" xlink:href="#2skgau"/></g><g><use fill="#fff" xlink:href="#2skgav"/></g><g><use fill="#fff" xlink:href="#2skgaw"/></g><g><use fill="#fff" xlink:href="#2skgax"/></g><g><use fill="#fff" xlink:href="#2skgay"/></g><g><use fill="#fff" xlink:href="#2skgaz"/></g><g><use fill="#fff" xlink:href="#2skgaA"/></g><g><use fill="#fff" xlink:href="#2skgaB"/></g><g><use fill="#fff" xlink:href="#2skgaC"/></g><g><use fill="#fff" xlink:href="#2skgaD"/></g><g><use fill="#fff" xlink:href="#2skgaE"/></g><g><use fill="#fff" xlink:href="#2skgaF"/></g><g><use fill="#fff" xlink:href="#2skgaG"/></g><g><use fill="#fff" xlink:href="#2skgaH"/></g><g><use fill="#fff" xlink:href="#2skgaI"/></g><g><use fill="#fff" xlink:href="#2skgaJ"/></g><g><use fill="#fff" xlink:href="#2skgaK"/></g><g><use fill="#fff" xlink:href="#2skgaL"/></g><g><use fill="#fff" xlink:href="#2skgaM"/></g><g><use fill="#fff" xlink:href="#2skgaN"/></g><g><use fill="#fff" xlink:href="#2skgaO"/></g><g><use fill="#fff" xlink:href="#2skgaP"/></g><g><use fill="#fff" xlink:href="#2skgaQ"/></g><g><use fill="#fff" xlink:href="#2skgaR"/></g><g><use fill="#fff" xlink:href="#2skgaS"/></g><g><use fill="#fff" xlink:href="#2skgaT"/></g><g><use fill="#fff" xlink:href="#2skgaU"/></g><g><use fill="#fff" xlink:href="#2skgaV"/></g><g><use fill="#fff" xlink:href="#2skgaW"/></g></g><g transform="translate(22 -87)"><g><use fill="#fff" xlink:href="#2skgaX"/></g><g><use fill="#fff" xlink:href="#2skgaY"/></g><g><use fill="#fff" xlink:href="#2skgaZ"/></g><g><use fill="#fff" xlink:href="#2skgba"/></g><g><use fill="#fff" xlink:href="#2skgbb"/></g><g><use fill="#fff" xlink:href="#2skgbc"/></g><g><use fill="#fff" xlink:href="#2skgbd"/></g><g><use fill="#fff" xlink:href="#2skgbe"/></g><g><use fill="#fff" xlink:href="#2skgbf"/></g><g><use fill="#fff" xlink:href="#2skgbg"/></g><g><use fill="#fff" xlink:href="#2skgbh"/></g><g><use fill="#fff" xlink:href="#2skgbi"/></g><g><use fill="#fff" xlink:href="#2skgbj"/></g><g><use fill="#fff" xlink:href="#2skgbk"/></g><g><use fill="#fff" xlink:href="#2skgbl"/></g><g><use fill="#fff" xlink:href="#2skgbm"/></g><g><use fill="#fff" xlink:href="#2skgbn"/></g><g><use fill="#fff" xlink:href="#2skgbo"/></g><g><use fill="#fff" xlink:href="#2skgbp"/></g><g><use fill="#fff" xlink:href="#2skgbq"/></g><g><use fill="#fff" xlink:href="#2skgbr"/></g><g><use fill="#fff" xlink:href="#2skgbs"/></g><g><use fill="#fff" xlink:href="#2skgbt"/></g><g><use fill="#fff" xlink:href="#2skgbu"/></g><g><use fill="#fff" xlink:href="#2skgbv"/></g><g><use fill="#fff" xlink:href="#2skgbw"/></g><g><use fill="#fff" xlink:href="#2skgbx"/></g><g><use fill="#fff" xlink:href="#2skgby"/></g><g><use fill="#fff" xlink:href="#2skgbz"/></g><g><use fill="#fff" xlink:href="#2skgbA"/></g><g><use fill="#fff" xlink:href="#2skgbB"/></g><g><use fill="#fff" xlink:href="#2skgbC"/></g><g><use fill="#fff" xlink:href="#2skgbD"/></g><g><use fill="#fff" xlink:href="#2skgbE"/></g><g><use fill="#fff" xlink:href="#2skgbF"/></g><g><use fill="#fff" xlink:href="#2skgbG"/></g><g><use fill="#fff" xlink:href="#2skgbH"/></g><g><use fill="#fff" xlink:href="#2skgbI"/></g><g><use fill="#fff" xlink:href="#2skgbJ"/></g><g><use fill="#fff" xlink:href="#2skgbK"/></g><g><use fill="#fff" xlink:href="#2skgbL"/></g><g><use fill="#fff" xlink:href="#2skgbM"/></g><g><use fill="#fff" xlink:href="#2skgbN"/></g><g><use fill="#fff" xlink:href="#2skgbO"/></g><g><use fill="#fff" xlink:href="#2skgaj"/></g><g><use fill="#fff" xlink:href="#2skgak"/></g><g><use fill="#fff" xlink:href="#2skgal"/></g><g><use fill="#fff" xlink:href="#2skgbP"/></g><g><use fill="#fff" xlink:href="#2skgbQ"/></g><g><use fill="#fff" xlink:href="#2skgbR"/></g><g><use fill="#fff" xlink:href="#2skgbS"/></g><g><use fill="#fff" xlink:href="#2skgbT"/></g><g><use fill="#fff" xlink:href="#2skgbU"/></g><g><use fill="#fff" xlink:href="#2skgbV"/></g><g><use fill="#fff" xlink:href="#2skgbW"/></g><g><use fill="#fff" xlink:href="#2skgbX"/></g><g><use fill="#fff" xlink:href="#2skgbY"/></g><g><use fill="#fff" xlink:href="#2skgbZ"/></g><g><use fill="#fff" xlink:href="#2skgca"/></g><g><use fill="#fff" xlink:href="#2skgcb"/></g><g><use fill="#fff" xlink:href="#2skgcc"/></g><g><use fill="#fff" xlink:href="#2skgcd"/></g><g><use fill="#fff" xlink:href="#2skgce"/></g><g><use fill="#fff" xlink:href="#2skgcf"/></g><g><use fill="#fff" xlink:href="#2skgcg"/></g><g><use fill="#fff" xlink:href="#2skgch"/></g><g><use fill="#fff" xlink:href="#2skgci"/></g><g><use fill="#fff" xlink:href="#2skgcj"/></g><g><use fill="#fff" xlink:href="#2skgck"/></g><g><use fill="#fff" xlink:href="#2skgcl"/></g><g><use fill="#fff" xlink:href="#2skgcm"/></g><g><use fill="#fff" xlink:href="#2skgcn"/></g><g><use fill="#fff" xlink:href="#2skgco"/></g><g><use fill="#fff" xlink:href="#2skgcp"/></g><g><use fill="#fff" xlink:href="#2skgcq"/></g><g><use fill="#fff" xlink:href="#2skgcr"/></g><g><use fill="#fff" xlink:href="#2skgcs"/></g><g><use fill="#fff" xlink:href="#2skgct"/></g><g><use fill="#fff" xlink:href="#2skgcu"/></g><g><use fill="#fff" xlink:href="#2skgcv"/></g><g><use fill="#fff" xlink:href="#2skgcw"/></g><g><use fill="#fff" xlink:href="#2skgcx"/></g><g><use fill="#fff" xlink:href="#2skgcy"/></g><g><use fill="#fff" xlink:href="#2skgcz"/></g><g><use fill="#fff" xlink:href="#2skgcA"/></g><g><use fill="#fff" xlink:href="#2skgcB"/></g><g><use fill="#fff" xlink:href="#2skgcC"/></g><g><use fill="#fff" xlink:href="#2skgcD"/></g><g><use fill="#fff" xlink:href="#2skgcE"/></g><g><use fill="#fff" xlink:href="#2skgcF"/></g><g><use fill="#fff" xlink:href="#2skgcG"/></g><g><use fill="#fff" xlink:href="#2skgcH"/></g><g><use fill="#fff" xlink:href="#2skgcI"/></g><g><use fill="#fff" xlink:href="#2skgcJ"/></g><g><use fill="#fff" xlink:href="#2skgcK"/></g><g><use fill="#fff" xlink:href="#2skgcL"/></g><g><use fill="#fff" xlink:href="#2skgcM"/></g><g><use fill="#fff" xlink:href="#2skgam"/></g><g><use fill="#fff" xlink:href="#2skgcN"/></g><g><use fill="#fff" xlink:href="#2skgcO"/></g><g><use fill="#fff" xlink:href="#2skgcP"/></g><g><use fill="#fff" xlink:href="#2skgcQ"/></g><g><use fill="#fff" xlink:href="#2skgcR"/></g><g><use fill="#fff" xlink:href="#2skgcS"/></g><g><use fill="#fff" xlink:href="#2skgcT"/></g><g><use fill="#fff" xlink:href="#2skgcU"/></g><g><use fill="#fff" xlink:href="#2skgcV"/></g><g><use fill="#fff" xlink:href="#2skgcW"/></g><g><use fill="#fff" xlink:href="#2skgcX"/></g><g><use fill="#fff" xlink:href="#2skgcY"/></g><g><use fill="#fff" xlink:href="#2skgcZ"/></g><g><use fill="#fff" xlink:href="#2skgda"/></g><g><use fill="#fff" xlink:href="#2skgdb"/></g></g><g transform="translate(22 -87)"><g><use fill="#fff" xlink:href="#2skgdc"/></g><g><use fill="#fff" xlink:href="#2skgdd"/></g><g><use fill="#fff" xlink:href="#2skgde"/></g><g><use fill="#fff" xlink:href="#2skgdf"/></g><g><use fill="#fff" xlink:href="#2skgdg"/></g><g><use fill="#fff" xlink:href="#2skgdh"/></g><g><use fill="#fff" xlink:href="#2skgdi"/></g><g><use fill="#fff" xlink:href="#2skgdj"/></g><g><use fill="#fff" xlink:href="#2skgdk"/></g><g><use fill="#fff" xlink:href="#2skgdl"/></g><g><use fill="#fff" xlink:href="#2skgdm"/></g><g><use fill="#fff" xlink:href="#2skgdn"/></g><g><use fill="#fff" xlink:href="#2skgdo"/></g><g><use fill="#fff" xlink:href="#2skgdp"/></g><g><use fill="#fff" xlink:href="#2skgdq"/></g><g><use fill="#fff" xlink:href="#2skgdr"/></g><g><use fill="#fff" xlink:href="#2skgds"/></g><g><use fill="#fff" xlink:href="#2skgdt"/></g><g><use fill="#fff" xlink:href="#2skgdu"/></g><g><use fill="#fff" xlink:href="#2skgdv"/></g><g><use fill="#fff" xlink:href="#2skgdw"/></g><g><use fill="#fff" xlink:href="#2skgdx"/></g><g><use fill="#fff" xlink:href="#2skgdy"/></g><g><use fill="#fff" xlink:href="#2skgdz"/></g><g><use fill="#fff" xlink:href="#2skgdA"/></g><g><use fill="#fff" xlink:href="#2skgdB"/></g><g><use fill="#fff" xlink:href="#2skgdC"/></g><g><use fill="#fff" xlink:href="#2skgdD"/></g><g><use fill="#fff" xlink:href="#2skgdE"/></g><g><use fill="#fff" xlink:href="#2skgdF"/></g><g><use fill="#fff" xlink:href="#2skgdG"/></g><g><use fill="#fff" xlink:href="#2skgdH"/></g><g><use fill="#fff" xlink:href="#2skgdI"/></g><g><use fill="#fff" xlink:href="#2skgdJ"/></g><g><use fill="#fff" xlink:href="#2skgdK"/></g><g><use fill="#fff" xlink:href="#2skgdL"/></g><g><use fill="#fff" xlink:href="#2skgdM"/></g><g><use fill="#fff" xlink:href="#2skgdN"/></g><g><use fill="#fff" xlink:href="#2skgdO"/></g><g><use fill="#fff" xlink:href="#2skgdP"/></g><g><use fill="#fff" xlink:href="#2skgdQ"/></g><g><use fill="#fff" xlink:href="#2skgdR"/></g><g><use fill="#fff" xlink:href="#2skgdS"/></g><g><use fill="#fff" xlink:href="#2skgdT"/></g><g><use fill="#fff" xlink:href="#2skgdU"/></g><g><use fill="#fff" xlink:href="#2skgdV"/></g><g><use fill="#fff" xlink:href="#2skgdW"/></g><g><use fill="#fff" xlink:href="#2skgdX"/></g><g><use fill="#fff" xlink:href="#2skgdY"/></g><g><use fill="#fff" xlink:href="#2skgdZ"/></g><g><use fill="#fff" xlink:href="#2skgea"/></g><g><use fill="#fff" xlink:href="#2skgeb"/></g><g><use fill="#fff" xlink:href="#2skgec"/></g><g><use fill="#fff" xlink:href="#2skged"/></g><g><use fill="#fff" xlink:href="#2skgee"/></g><g><use fill="#fff" xlink:href="#2skgef"/></g><g><use fill="#fff" xlink:href="#2skgeg"/></g><g><use fill="#fff" xlink:href="#2skgeh"/></g><g><use fill="#fff" xlink:href="#2skgei"/></g><g><use fill="#fff" xlink:href="#2skgej"/></g><g><use fill="#fff" xlink:href="#2skgek"/></g><g><use fill="#fff" xlink:href="#2skgel"/></g><g><use fill="#fff" xlink:href="#2skgem"/></g><g><use fill="#fff" xlink:href="#2skgen"/></g><g><use fill="#fff" xlink:href="#2skgeo"/></g><g><use fill="#fff" xlink:href="#2skgep"/></g><g><use fill="#fff" xlink:href="#2skgeq"/></g><g><use fill="#fff" xlink:href="#2skger"/></g><g><use fill="#fff" xlink:href="#2skges"/></g><g><use fill="#fff" xlink:href="#2skget"/></g></g></g></svg>