<svg xmlns="http://www.w3.org/2000/svg" xmlns:xlink="http://www.w3.org/1999/xlink" width="178" height="134" viewBox="0 0 89 67"><defs><path id="x1eza" d="M1347 83.5a.5.5 0 1 1 1 0 .5.5 0 0 1-1 0z"/><path id="x1ezb" d="M1358 83.5a.5.5 0 1 1 1 0 .5.5 0 0 1-1 0z"/><path id="x1ezc" d="M1369 83.5a.5.5 0 1 1 1 0 .5.5 0 0 1-1 0z"/><path id="x1ezd" d="M1380 83.5a.5.5 0 1 1 1 0 .5.5 0 0 1-1 0z"/><path id="x1eze" d="M1347 94.5a.5.5 0 1 1 1 0 .5.5 0 0 1-1 0z"/><path id="x1ezf" d="M1358 94.5a.5.5 0 1 1 1 0 .5.5 0 0 1-1 0z"/><path id="x1ezg" d="M1369 94.5a.5.5 0 1 1 1 0 .5.5 0 0 1-1 0z"/><path id="x1ezh" d="M1380 94.5a.5.5 0 1 1 1 0 .5.5 0 0 1-1 0z"/><path id="x1ezi" d="M1347 105.5a.5.5 0 1 1 1 0 .5.5 0 0 1-1 0z"/><path id="x1ezj" d="M1358 105.5a.5.5 0 1 1 1 0 .5.5 0 0 1-1 0z"/><path id="x1ezk" d="M1369 105.5a.5.5 0 1 1 1 0 .5.5 0 0 1-1 0z"/><path id="x1ezl" d="M1380 105.5a.5.5 0 1 1 1 0 .5.5 0 0 1-1 0z"/><path id="x1ezm" d="M1391 83.5a.5.5 0 1 1 1 0 .5.5 0 0 1-1 0z"/><path id="x1ezn" d="M1402 83.5a.5.5 0 1 1 1 0 .5.5 0 0 1-1 0z"/><path id="x1ezo" d="M1413 83.5a.5.5 0 1 1 1 0 .5.5 0 0 1-1 0z"/><path id="x1ezp" d="M1424 83.5a.5.5 0 1 1 1 0 .5.5 0 0 1-1 0z"/><path id="x1ezq" d="M1435 83.5a.5.5 0 1 1 1 0 .5.5 0 0 1-1 0z"/><path id="x1ezr" d="M1435 94.5a.5.5 0 1 1 1 0 .5.5 0 0 1-1 0z"/><path id="x1ezs" d="M1435 105.5a.5.5 0 1 1 1 0 .5.5 0 0 1-1 0z"/><path id="x1ezt" d="M1435 116.5a.5.5 0 1 1 1 0 .5.5 0 0 1-1 0z"/><path id="x1ezu" d="M1391 94.5a.5.5 0 1 1 1 0 .5.5 0 0 1-1 0z"/><path id="x1ezv" d="M1402 94.5a.5.5 0 1 1 1 0 .5.5 0 0 1-1 0z"/><path id="x1ezw" d="M1413 94.5a.5.5 0 1 1 1 0 .5.5 0 0 1-1 0z"/><path id="x1ezx" d="M1424 94.5a.5.5 0 1 1 1 0 .5.5 0 0 1-1 0z"/><path id="x1ezy" d="M1391 105.5a.5.5 0 1 1 1 0 .5.5 0 0 1-1 0z"/><path id="x1ezz" d="M1402 105.5a.5.5 0 1 1 1 0 .5.5 0 0 1-1 0z"/><path id="x1ezA" d="M1413 105.5a.5.5 0 1 1 1 0 .5.5 0 0 1-1 0z"/><path id="x1ezB" d="M1424 105.5a.5.5 0 1 1 1 0 .5.5 0 0 1-1 0z"/><path id="x1ezC" d="M1347 116.5a.5.5 0 1 1 1 0 .5.5 0 0 1-1 0z"/><path id="x1ezD" d="M1358 116.5a.5.5 0 1 1 1 0 .5.5 0 0 1-1 0z"/><path id="x1ezE" d="M1369 116.5a.5.5 0 1 1 1 0 .5.5 0 0 1-1 0z"/><path id="x1ezF" d="M1380 116.5a.5.5 0 1 1 1 0 .5.5 0 0 1-1 0z"/><path id="x1ezG" d="M1347 127.5a.5.5 0 1 1 1 0 .5.5 0 0 1-1 0z"/><path id="x1ezH" d="M1358 127.5a.5.5 0 1 1 1 0 .5.5 0 0 1-1 0z"/><path id="x1ezI" d="M1369 127.5a.5.5 0 1 1 1 0 .5.5 0 0 1-1 0z"/><path id="x1ezJ" d="M1380 127.5a.5.5 0 1 1 1 0 .5.5 0 0 1-1 0z"/><path id="x1ezK" d="M1347 138.5a.5.5 0 1 1 1 0 .5.5 0 0 1-1 0z"/><path id="x1ezL" d="M1347 149.5a.5.5 0 1 1 1 0 .5.5 0 0 1-1 0z"/><path id="x1ezM" d="M1358 149.5a.5.5 0 1 1 1 0 .5.5 0 0 1-1 0z"/><path id="x1ezN" d="M1369 149.5a.5.5 0 1 1 1 0 .5.5 0 0 1-1 0z"/><path id="x1ezO" d="M1380 149.5a.5.5 0 1 1 1 0 .5.5 0 0 1-1 0z"/><path id="x1ezP" d="M1391 149.5a.5.5 0 1 1 1 0 .5.5 0 0 1-1 0z"/><path id="x1ezQ" d="M1402 149.5a.5.5 0 1 1 1 0 .5.5 0 0 1-1 0z"/><path id="x1ezR" d="M1358 138.5a.5.5 0 1 1 1 0 .5.5 0 0 1-1 0z"/><path id="x1ezS" d="M1369 138.5a.5.5 0 1 1 1 0 .5.5 0 0 1-1 0z"/><path id="x1ezT" d="M1380 138.5a.5.5 0 1 1 1 0 .5.5 0 0 1-1 0z"/><path id="x1ezU" d="M1391 116.5a.5.5 0 1 1 1 0 .5.5 0 0 1-1 0z"/><path id="x1ezV" d="M1402 116.5a.5.5 0 1 1 1 0 .5.5 0 0 1-1 0z"/><path id="x1ezW" d="M1413 116.5a.5.5 0 1 1 1 0 .5.5 0 0 1-1 0z"/><path id="x1ezX" d="M1424 116.5a.5.5 0 1 1 1 0 .5.5 0 0 1-1 0z"/><path id="x1ezY" d="M1391 127.5a.5.5 0 1 1 1 0 .5.5 0 0 1-1 0z"/><path id="x1ezZ" d="M1402 127.5a.5.5 0 1 1 1 0 .5.5 0 0 1-1 0z"/><path id="x1ezaa" d="M1391 138.5a.5.5 0 1 1 1 0 .5.5 0 0 1-1 0z"/><path id="x1ezab" d="M1402 138.5a.5.5 0 1 1 1 0 .5.5 0 0 1-1 0z"/></defs><g><g transform="matrix(-1 0 0 1 1436 -83)"><g><use fill="#fff" xlink:href="#x1eza"/></g><g><use fill="#fff" xlink:href="#x1ezb"/></g><g><use fill="#fff" xlink:href="#x1ezc"/></g><g><use fill="#fff" xlink:href="#x1ezd"/></g><g><use fill="#fff" xlink:href="#x1eze"/></g><g><use fill="#fff" xlink:href="#x1ezf"/></g><g><use fill="#fff" xlink:href="#x1ezg"/></g><g><use fill="#fff" xlink:href="#x1ezh"/></g><g><use fill="#fff" xlink:href="#x1ezi"/></g><g><use fill="#fff" xlink:href="#x1ezj"/></g><g><use fill="#fff" xlink:href="#x1ezk"/></g><g><use fill="#fff" xlink:href="#x1ezl"/></g><g><use fill="#fff" xlink:href="#x1ezm"/></g><g><use fill="#fff" xlink:href="#x1ezn"/></g><g><use fill="#fff" xlink:href="#x1ezo"/></g><g><use fill="#fff" xlink:href="#x1ezp"/></g><g><use fill="#fff" xlink:href="#x1ezq"/></g><g><use fill="#fff" xlink:href="#x1ezr"/></g><g><use fill="#fff" xlink:href="#x1ezs"/></g><g><use fill="#fff" xlink:href="#x1ezt"/></g><g><use fill="#fff" xlink:href="#x1ezu"/></g><g><use fill="#fff" xlink:href="#x1ezv"/></g><g><use fill="#fff" xlink:href="#x1ezw"/></g><g><use fill="#fff" xlink:href="#x1ezx"/></g><g><use fill="#fff" xlink:href="#x1ezy"/></g><g><use fill="#fff" xlink:href="#x1ezz"/></g><g><use fill="#fff" xlink:href="#x1ezA"/></g><g><use fill="#fff" xlink:href="#x1ezB"/></g><g><use fill="#fff" xlink:href="#x1ezC"/></g><g><use fill="#fff" xlink:href="#x1ezD"/></g><g><use fill="#fff" xlink:href="#x1ezE"/></g><g><use fill="#fff" xlink:href="#x1ezF"/></g><g><use fill="#fff" xlink:href="#x1ezG"/></g><g><use fill="#fff" xlink:href="#x1ezH"/></g><g><use fill="#fff" xlink:href="#x1ezI"/></g><g><use fill="#fff" xlink:href="#x1ezJ"/></g><g><use fill="#fff" xlink:href="#x1ezK"/></g><g><use fill="#fff" xlink:href="#x1ezL"/></g><g><use fill="#fff" xlink:href="#x1ezM"/></g><g><use fill="#fff" xlink:href="#x1ezN"/></g><g><use fill="#fff" xlink:href="#x1ezO"/></g><g><use fill="#fff" xlink:href="#x1ezP"/></g><g><use fill="#fff" xlink:href="#x1ezQ"/></g><g><use fill="#fff" xlink:href="#x1ezR"/></g><g><use fill="#fff" xlink:href="#x1ezS"/></g><g><use fill="#fff" xlink:href="#x1ezT"/></g><g><use fill="#fff" xlink:href="#x1ezU"/></g><g><use fill="#fff" xlink:href="#x1ezV"/></g><g><use fill="#fff" xlink:href="#x1ezW"/></g><g><use fill="#fff" xlink:href="#x1ezX"/></g><g><use fill="#fff" xlink:href="#x1ezY"/></g><g><use fill="#fff" xlink:href="#x1ezZ"/></g><g><use fill="#fff" xlink:href="#x1ezaa"/></g><g><use fill="#fff" xlink:href="#x1ezab"/></g></g></g></svg>