<svg xmlns="http://www.w3.org/2000/svg" xmlns:xlink="http://www.w3.org/1999/xlink" width="34" height="40" viewBox="0 0 17 20"><defs><path id="fieha" d="M524.186 162.804a.408.408 0 0 1-.413.402h-12.536a.408.408 0 0 1-.413-.402v-12.463h2.083c.853 0 1.546-.676 1.546-1.507v-2.03h9.32c.228 0 .413.18.413.402zm-10.56-15.432v1.467c0 .39-.323.707-.72.707h-1.499zM523.764 146h-9.726v.001a.416.416 0 0 0-.29.117l-3.627 3.535a.396.396 0 0 0-.12.285H510v12.857c0 .664.555 1.205 1.236 1.205h12.528c.681 0 1.236-.54 1.236-1.205v-15.59c0-.664-.555-1.205-1.236-1.205z"/><path id="fiehb" d="M510.667 165h-.334c-.184 0-.333.224-.333.5s.15.5.333.5h.334c.184 0 .333-.224.333-.5s-.15-.5-.333-.5z"/><path id="fiehc" d="M508.5 161c-.276 0-.5.15-.5.333v.334c0 .184.224.333.5.333s.5-.15.5-.333v-.334c0-.184-.224-.333-.5-.333z"/><path id="fiehd" d="M508.5 163c-.276 0-.5.15-.5.333v.334c0 .184.224.333.5.333s.5-.15.5-.333v-.334c0-.184-.224-.333-.5-.333z"/><path id="fiehe" d="M512.667 165h-.334c-.184 0-.333.224-.333.5s.15.5.333.5h.334c.184 0 .333-.224.333-.5s-.15-.5-.333-.5z"/><path id="fiehf" d="M508.774 165.252a.363.363 0 0 1-.143-.113.338.338 0 0 0-.503-.049.41.41 0 0 0-.045.546c.114.149.263.265.429.337a.331.331 0 0 0 .13.027.358.358 0 0 0 .333-.245c.072-.2-.017-.424-.2-.503z"/><path id="fiehg" d="M508.5 151c-.276 0-.5.15-.5.333v.334c0 .184.224.333.5.333s.5-.15.5-.333v-.334c0-.184-.224-.333-.5-.333z"/><path id="fiehh" d="M508.5 149c-.276 0-.5.15-.5.333v.334c0 .184.224.333.5.333s.5-.15.5-.333v-.334c0-.184-.224-.333-.5-.333z"/><path id="fiehi" d="M508.5 153c-.276 0-.5.15-.5.333v.334c0 .184.224.333.5.333s.5-.15.5-.333v-.334c0-.184-.224-.333-.5-.333z"/><path id="fiehj" d="M508.5 159c-.276 0-.5.15-.5.333v.334c0 .184.224.333.5.333s.5-.15.5-.333v-.334c0-.184-.224-.333-.5-.333z"/><path id="fiehk" d="M508.5 155c-.276 0-.5.15-.5.333v.334c0 .184.224.333.5.333s.5-.15.5-.333v-.334c0-.184-.224-.333-.5-.333z"/><path id="fiehl" d="M508.5 157c-.276 0-.5.15-.5.333v.334c0 .184.224.333.5.333s.5-.15.5-.333v-.334c0-.184-.224-.333-.5-.333z"/><path id="fiehm" d="M510.667 148h-.334c-.184 0-.333.224-.333.5s.15.5.333.5h.334c.184 0 .333-.224.333-.5s-.15-.5-.333-.5z"/><path id="fiehn" d="M520.667 165h-.334c-.184 0-.333.224-.333.5s.15.5.333.5h.334c.184 0 .333-.224.333-.5s-.15-.5-.333-.5z"/><path id="fieho" d="M514.667 165h-.334c-.184 0-.333.224-.333.5s.15.5.333.5h.334c.184 0 .333-.224.333-.5s-.15-.5-.333-.5z"/><path id="fiehp" d="M522.505 164c-.273 0-.494.15-.494.333v.235a.23.23 0 0 1-.006.05c-.04.182.147.352.418.378a.737.737 0 0 0 .072.004c.242 0 .453-.12.49-.285a.69.69 0 0 0 .015-.147v-.235c0-.184-.221-.333-.495-.333z"/><path id="fiehq" d="M518.667 165h-.334c-.184 0-.333.224-.333.5s.15.5.333.5h.334c.184 0 .333-.224.333-.5s-.15-.5-.333-.5z"/><path id="fiehr" d="M516.667 165h-.334c-.184 0-.333.224-.333.5s.15.5.333.5h.334c.184 0 .333-.224.333-.5s-.15-.5-.333-.5z"/><path id="fiehs" d="M516.565 154h-3.13c-.24 0-.435.224-.435.5s.195.5.435.5h3.13c.24 0 .435-.224.435-.5s-.195-.5-.435-.5z"/><path id="fieht" d="M519.624 160h-6.248c-.208 0-.376.224-.376.5s.168.5.376.5h6.248c.208 0 .376-.224.376-.5s-.168-.5-.376-.5z"/><path id="fiehu" d="M521.854 160.147a.504.504 0 0 0-.708 0 .504.504 0 0 0 0 .706.504.504 0 0 0 .708 0 .504.504 0 0 0 0-.707z"/><path id="fiehv" d="M516.565 157h-3.13c-.24 0-.435.224-.435.5s.195.5.435.5h3.13c.24 0 .435-.224.435-.5s-.195-.5-.435-.5z"/><path id="fiehw" d="M521.618 148h-5.763c-.21 0-.382.195-.382.435s.171.435.383.435h5.38v2.26h-7.854c-.21 0-.382.195-.382.435s.171.435.382.435h8.236c.21 0 .382-.195.382-.435v-3.13c0-.24-.171-.435-.382-.435z"/><path id="fiehx" d="M522.143 157.13h-3.296v-2.26h3.296zm.433-3.13h-4.152a.43.43 0 0 0-.424.435v3.13c0 .24.19.435.424.435h4.152a.43.43 0 0 0 .424-.435v-3.13a.43.43 0 0 0-.424-.435z"/></defs><g><g transform="translate(-508 -146)"><g><use fill="#5eaff6" xlink:href="#fieha"/></g><g><use fill="#5eaff6" xlink:href="#fiehb"/></g><g><use fill="#5eaff6" xlink:href="#fiehc"/></g><g><use fill="#5eaff6" xlink:href="#fiehd"/></g><g><use fill="#5eaff6" xlink:href="#fiehe"/></g><g><use fill="#5eaff6" xlink:href="#fiehf"/></g><g><use fill="#5eaff6" xlink:href="#fiehg"/></g><g><use fill="#5eaff6" xlink:href="#fiehh"/></g><g><use fill="#5eaff6" xlink:href="#fiehi"/></g><g><use fill="#5eaff6" xlink:href="#fiehj"/></g><g><use fill="#5eaff6" xlink:href="#fiehk"/></g><g><use fill="#5eaff6" xlink:href="#fiehl"/></g><g><use fill="#5eaff6" xlink:href="#fiehm"/></g><g><use fill="#5eaff6" xlink:href="#fiehn"/></g><g><use fill="#5eaff6" xlink:href="#fieho"/></g><g><use fill="#5eaff6" xlink:href="#fiehp"/></g><g><use fill="#5eaff6" xlink:href="#fiehq"/></g><g><use fill="#5eaff6" xlink:href="#fiehr"/></g><g><use fill="#5eaff6" xlink:href="#fiehs"/></g><g><use fill="#5eaff6" xlink:href="#fieht"/></g><g><use fill="#5eaff6" xlink:href="#fiehu"/></g><g><use fill="#5eaff6" xlink:href="#fiehv"/></g><g><use fill="#5eaff6" xlink:href="#fiehw"/></g><g><use fill="#5eaff6" xlink:href="#fiehx"/></g></g></g></svg>