<svg xmlns="http://www.w3.org/2000/svg" xmlns:xlink="http://www.w3.org/1999/xlink" width="28" height="28" viewBox="0 0 14 14"><defs><path id="s3s2a" d="M1269.321 44.375a5.067 5.067 0 0 1-5.066-5.059 5.07 5.07 0 0 1 5.066-5.06 5.072 5.072 0 0 1 5.067 5.06c0 2.79-2.275 5.059-5.067 5.059zm7.495 1.56l-2.606-2.606A6.323 6.323 0 0 0 1269.321 33a6.321 6.321 0 1 0 4.005 11.213l2.606 2.603a.625.625 0 0 0 .884-.881z"/></defs><g><g transform="translate(-1263 -33)"><use fill="#5daef5" xlink:href="#s3s2a"/></g></g></svg>