<svg xmlns="http://www.w3.org/2000/svg" xmlns:xlink="http://www.w3.org/1999/xlink" width="42" height="40" viewBox="0 0 21 20"><defs><path id="r68ha" d="M1350.667 42.843a.885.885 0 0 0-1.09-.012 8.063 8.063 0 0 1-4.936 1.668c-.49 0-.982-.045-1.46-.132a.351.351 0 1 0-.126.692c.52.094 1.054.142 1.586.142a8.76 8.76 0 0 0 5.362-1.811.183.183 0 0 1 .277.221 9.744 9.744 0 0 1-3.526 4.101 9.688 9.688 0 0 1-5.324 1.585c-5.364 0-9.727-4.363-9.727-9.727 0-1.9.548-3.741 1.585-5.324a9.743 9.743 0 0 1 4.1-3.527.183.183 0 1 1 .222.278 8.76 8.76 0 0 0-1.811 5.362c0 1.895.593 3.702 1.715 5.228a8.82 8.82 0 0 0 4.356 3.17.351.351 0 0 0 .22-.667 8.13 8.13 0 0 1-5.589-7.73c0-1.802.577-3.508 1.668-4.936a.884.884 0 0 0-1.073-1.343 10.444 10.444 0 0 0-4.396 3.78 10.387 10.387 0 0 0-1.7 5.709c0 5.751 4.679 10.43 10.43 10.43 2.037 0 4.012-.588 5.71-1.7a10.446 10.446 0 0 0 3.78-4.397.885.885 0 0 0-.253-1.06z"/><path id="r68hb" d="M1342.5 35.75c.194.3.45.556.75.75-.3.194-.556.45-.75.75a2.52 2.52 0 0 0-.75-.75c.3-.194.556-.45.75-.75zm-2.102 1.148c.94 0 1.704.764 1.704 1.704a.398.398 0 0 0 .796 0c0-.94.764-1.704 1.704-1.704a.398.398 0 0 0 0-.796c-.94 0-1.704-.764-1.704-1.704a.398.398 0 0 0-.796 0c0 .94-.764 1.704-1.704 1.704a.398.398 0 0 0 0 .796z"/><path id="r68hc" d="M1345.005 39.643a.363.363 0 1 1 0 .725.363.363 0 0 1 0-.725zM1345 41a1.001 1.001 0 0 0 0-2 1.001 1.001 0 0 0 0 2z"/><path id="r68hd" d="M1332.005 48.367a.363.363 0 1 1 0-.725.363.363 0 0 1 0 .725zM1332 47a1.001 1.001 0 0 0 0 2 1.001 1.001 0 0 0 0-2z"/><path id="r68he" d="M1342 40.5a.5.5 0 1 1 1 0 .5.5 0 0 1-1 0z"/><path id="r68hf" d="M1330 45.5a.5.5 0 1 1 1 0 .5.5 0 0 1-1 0z"/><path id="r68hg" d="M1345 33.5a.5.5 0 1 1 1 0 .5.5 0 0 1-1 0z"/></defs><g><g transform="translate(-1330 -30)"><g><use fill="#5eaff6" xlink:href="#r68ha"/></g><g><use fill="#5eaff6" xlink:href="#r68hb"/></g><g><use fill="#5eaff6" xlink:href="#r68hc"/></g><g><use fill="#5eaff6" xlink:href="#r68hd"/></g><g><use fill="#5eaff6" xlink:href="#r68he"/></g><g><use fill="#5eaff6" xlink:href="#r68hf"/></g><g><use fill="#5eaff6" xlink:href="#r68hg"/></g></g></g></svg>